control_change channel=0 control=16 value=64 time=0
control_change channel=0 control=17 value=30 time=0
control_change channel=0 control=18 value=0 time=0
control_change channel=0 control=19 value=127 time=0
control_change channel=0 control=20 value=0 time=0
control_change channel=0 control=21 value=0 time=0
control_change channel=0 control=22 value=0 time=0
control_change channel=0 control=23 value=127 time=0
control_change channel=0 control=24 value=127 time=0
control_change channel=0 control=25 value=64 time=0
control_change channel=0 control=26 value=0 time=0
control_change channel=0 control=27 value=127 time=0
control_change channel=0 control=28 value=32 time=0
control_change channel=0 control=29 value=32 time=0
control_change channel=0 control=30 value=32 time=0
control_change channel=0 control=31 value=0 time=0
control_change channel=0 control=32 value=0 time=0
control_change channel=0 control=33 value=0 time=0
control_change channel=0 control=34 value=0 time=0
control_change channel=0 control=35 value=127 time=0
control_change channel=0 control=36 value=0 time=0
control_change channel=0 control=37 value=64 time=0
control_change channel=0 control=38 value=0 time=0
control_change channel=0 control=39 value=64 time=0
control_change channel=0 control=40 value=47 time=0
control_change channel=0 control=41 value=0 time=0
control_change channel=0 control=42 value=127 time=0
control_change channel=0 control=43 value=0 time=0
control_change channel=0 control=44 value=127 time=0
control_change channel=0 control=45 value=0 time=0
control_change channel=0 control=46 value=86 time=0
control_change channel=0 control=47 value=108 time=0
control_change channel=0 control=48 value=127 time=0
control_change channel=0 control=49 value=0 time=0
control_change channel=0 control=50 value=0 time=0
control_change channel=0 control=51 value=0 time=0
control_change channel=0 control=55 value=0 time=0
control_change channel=0 control=56 value=8 time=0

control_change channel=1 control=16 value=64 time=0
control_change channel=1 control=17 value=0 time=0
control_change channel=1 control=18 value=0 time=0
control_change channel=1 control=19 value=127 time=0
control_change channel=1 control=20 value=0 time=0
control_change channel=1 control=21 value=0 time=0
control_change channel=1 control=22 value=0 time=0
control_change channel=1 control=23 value=0 time=0
control_change channel=1 control=24 value=95 time=0
control_change channel=1 control=25 value=70 time=0
control_change channel=1 control=26 value=64 time=0
control_change channel=1 control=27 value=127 time=0
control_change channel=1 control=28 value=32 time=0
control_change channel=1 control=29 value=32 time=0
control_change channel=1 control=30 value=32 time=0
control_change channel=1 control=31 value=0 time=0
control_change channel=1 control=32 value=0 time=0
control_change channel=1 control=33 value=0 time=0
control_change channel=1 control=34 value=0 time=0
control_change channel=1 control=35 value=127 time=0
control_change channel=1 control=36 value=0 time=0
control_change channel=1 control=37 value=64 time=0
control_change channel=1 control=38 value=0 time=0
control_change channel=1 control=39 value=64 time=0
control_change channel=1 control=40 value=82 time=0
control_change channel=1 control=41 value=21 time=0
control_change channel=1 control=42 value=127 time=0
control_change channel=1 control=43 value=0 time=0
control_change channel=1 control=44 value=127 time=0
control_change channel=1 control=45 value=0 time=0
control_change channel=1 control=46 value=108 time=0
control_change channel=1 control=47 value=108 time=0
control_change channel=1 control=49 value=0 time=0
control_change channel=1 control=50 value=0 time=0
control_change channel=1 control=51 value=0 time=0

control_change channel=2 control=16 value=64 time=0
control_change channel=2 control=17 value=0 time=0
control_change channel=2 control=18 value=0 time=0
control_change channel=2 control=19 value=127 time=0
control_change channel=2 control=20 value=0 time=0
control_change channel=2 control=21 value=79 time=0
control_change channel=2 control=22 value=0 time=0
control_change channel=2 control=23 value=127 time=0
control_change channel=2 control=24 value=127 time=0
control_change channel=2 control=25 value=64 time=0
control_change channel=2 control=26 value=64 time=0
control_change channel=2 control=27 value=127 time=0
control_change channel=2 control=28 value=32 time=0
control_change channel=2 control=29 value=32 time=0
control_change channel=2 control=30 value=32 time=0
control_change channel=2 control=31 value=0 time=0
control_change channel=2 control=32 value=0 time=0
control_change channel=2 control=33 value=0 time=0
control_change channel=2 control=34 value=0 time=0
control_change channel=2 control=35 value=127 time=0
control_change channel=2 control=36 value=0 time=0
control_change channel=2 control=37 value=64 time=0
control_change channel=2 control=38 value=0 time=0
control_change channel=2 control=39 value=64 time=0
control_change channel=2 control=40 value=47 time=0
control_change channel=2 control=41 value=0 time=0
control_change channel=2 control=42 value=127 time=0
control_change channel=2 control=43 value=0 time=0
control_change channel=2 control=44 value=127 time=0
control_change channel=2 control=45 value=0 time=0
control_change channel=2 control=46 value=108 time=0
control_change channel=2 control=47 value=108 time=0
control_change channel=2 control=49 value=0 time=0
control_change channel=2 control=50 value=0 time=0
control_change channel=2 control=51 value=0 time=0

control_change channel=3 control=16 value=64 time=0
control_change channel=3 control=17 value=0 time=0
control_change channel=3 control=18 value=0 time=0
control_change channel=3 control=19 value=127 time=0
control_change channel=3 control=20 value=0 time=0
control_change channel=3 control=21 value=79 time=0
control_change channel=3 control=22 value=0 time=0
control_change channel=3 control=23 value=127 time=0
control_change channel=3 control=24 value=127 time=0
control_change channel=3 control=25 value=64 time=0
control_change channel=3 control=26 value=64 time=0
control_change channel=3 control=27 value=127 time=0
control_change channel=3 control=28 value=32 time=0
control_change channel=3 control=29 value=32 time=0
control_change channel=3 control=30 value=32 time=0
control_change channel=3 control=31 value=0 time=0
control_change channel=3 control=32 value=0 time=0
control_change channel=3 control=33 value=0 time=0
control_change channel=3 control=34 value=0 time=0
control_change channel=3 control=35 value=127 time=0
control_change channel=3 control=36 value=0 time=0
control_change channel=3 control=37 value=64 time=0
control_change channel=3 control=38 value=0 time=0
control_change channel=3 control=39 value=64 time=0
control_change channel=3 control=40 value=47 time=0
control_change channel=3 control=41 value=0 time=0
control_change channel=3 control=42 value=127 time=0
control_change channel=3 control=43 value=0 time=0
control_change channel=3 control=44 value=127 time=0
control_change channel=3 control=45 value=0 time=0
control_change channel=3 control=46 value=108 time=0
control_change channel=3 control=47 value=108 time=0
control_change channel=3 control=49 value=0 time=0
control_change channel=3 control=50 value=0 time=0
control_change channel=3 control=51 value=0 time=0

control_change channel=4 control=16 value=2 time=0
control_change channel=4 control=17 value=64 time=0
control_change channel=4 control=18 value=0 time=0
control_change channel=4 control=19 value=0 time=0
control_change channel=4 control=20 value=64 time=0
control_change channel=4 control=21 value=0 time=0
control_change channel=4 control=22 value=0 time=0
control_change channel=4 control=23 value=127 time=0
control_change channel=4 control=24 value=127 time=0
control_change channel=4 control=25 value=64 time=0
control_change channel=4 control=26 value=64 time=0
control_change channel=4 control=27 value=127 time=0
control_change channel=4 control=28 value=32 time=0
control_change channel=4 control=29 value=32 time=0
control_change channel=4 control=30 value=32 time=0
control_change channel=4 control=31 value=0 time=0
control_change channel=4 control=32 value=0 time=0
control_change channel=4 control=33 value=0 time=0
control_change channel=4 control=34 value=64 time=0
control_change channel=4 control=35 value=64 time=0
control_change channel=4 control=36 value=22 time=0
control_change channel=4 control=37 value=26 time=0
control_change channel=4 control=38 value=127 time=0
control_change channel=4 control=39 value=0 time=0
control_change channel=4 control=40 value=57 time=0
control_change channel=4 control=41 value=0 time=0
control_change channel=4 control=42 value=0 time=0
control_change channel=4 control=43 value=20 time=0
control_change channel=4 control=44 value=127 time=0
control_change channel=4 control=45 value=0 time=0
control_change channel=4 control=46 value=108 time=0
control_change channel=4 control=47 value=108 time=0
control_change channel=4 control=49 value=0 time=0
control_change channel=4 control=50 value=0 time=0
control_change channel=4 control=51 value=0 time=0

control_change channel=5 control=16 value=64 time=0
control_change channel=5 control=17 value=0 time=0
control_change channel=5 control=18 value=0 time=0
control_change channel=5 control=19 value=127 time=0
control_change channel=5 control=20 value=0 time=0
control_change channel=5 control=21 value=79 time=0
control_change channel=5 control=22 value=0 time=0
control_change channel=5 control=23 value=127 time=0
control_change channel=5 control=24 value=127 time=0
control_change channel=5 control=25 value=64 time=0
control_change channel=5 control=26 value=64 time=0
control_change channel=5 control=27 value=127 time=0
control_change channel=5 control=28 value=32 time=0
control_change channel=5 control=29 value=32 time=0
control_change channel=5 control=30 value=32 time=0
control_change channel=5 control=31 value=0 time=0
control_change channel=5 control=32 value=0 time=0
control_change channel=5 control=33 value=0 time=0
control_change channel=5 control=34 value=0 time=0
control_change channel=5 control=35 value=127 time=0
control_change channel=5 control=36 value=0 time=0
control_change channel=5 control=37 value=64 time=0
control_change channel=5 control=38 value=0 time=0
control_change channel=5 control=39 value=64 time=0
control_change channel=5 control=40 value=47 time=0
control_change channel=5 control=41 value=0 time=0
control_change channel=5 control=42 value=127 time=0
control_change channel=5 control=43 value=0 time=0
control_change channel=5 control=44 value=127 time=0
control_change channel=5 control=45 value=0 time=0
control_change channel=5 control=46 value=108 time=0
control_change channel=5 control=47 value=108 time=0
control_change channel=5 control=49 value=0 time=0
control_change channel=5 control=50 value=0 time=0
control_change channel=5 control=51 value=0 time=0

control_change channel=6 control=16 value=64 time=0
control_change channel=6 control=17 value=0 time=0
control_change channel=6 control=18 value=0 time=0
control_change channel=6 control=19 value=127 time=0
control_change channel=6 control=20 value=0 time=0
control_change channel=6 control=21 value=79 time=0
control_change channel=6 control=22 value=0 time=0
control_change channel=6 control=23 value=127 time=0
control_change channel=6 control=24 value=127 time=0
control_change channel=6 control=25 value=64 time=0
control_change channel=6 control=26 value=64 time=0
control_change channel=6 control=27 value=127 time=0
control_change channel=6 control=28 value=32 time=0
control_change channel=6 control=29 value=32 time=0
control_change channel=6 control=30 value=32 time=0
control_change channel=6 control=31 value=0 time=0
control_change channel=6 control=32 value=0 time=0
control_change channel=6 control=33 value=0 time=0
control_change channel=6 control=34 value=0 time=0
control_change channel=6 control=35 value=127 time=0
control_change channel=6 control=36 value=0 time=0
control_change channel=6 control=37 value=64 time=0
control_change channel=6 control=38 value=0 time=0
control_change channel=6 control=39 value=64 time=0
control_change channel=6 control=40 value=47 time=0
control_change channel=6 control=41 value=0 time=0
control_change channel=6 control=42 value=127 time=0
control_change channel=6 control=43 value=0 time=0
control_change channel=6 control=44 value=127 time=0
control_change channel=6 control=45 value=0 time=0
control_change channel=6 control=46 value=108 time=0
control_change channel=6 control=47 value=108 time=0
control_change channel=6 control=49 value=0 time=0
control_change channel=6 control=50 value=0 time=0
control_change channel=6 control=51 value=0 time=0

control_change channel=7 control=16 value=64 time=0
control_change channel=7 control=17 value=0 time=0
control_change channel=7 control=18 value=0 time=0
control_change channel=7 control=19 value=127 time=0
control_change channel=7 control=20 value=0 time=0
control_change channel=7 control=21 value=79 time=0
control_change channel=7 control=22 value=0 time=0
control_change channel=7 control=23 value=127 time=0
control_change channel=7 control=24 value=127 time=0
control_change channel=7 control=25 value=64 time=0
control_change channel=7 control=26 value=64 time=0
control_change channel=7 control=27 value=127 time=0
control_change channel=7 control=28 value=32 time=0
control_change channel=7 control=29 value=32 time=0
control_change channel=7 control=30 value=32 time=0
control_change channel=7 control=31 value=0 time=0
control_change channel=7 control=32 value=0 time=0
control_change channel=7 control=33 value=0 time=0
control_change channel=7 control=34 value=0 time=0
control_change channel=7 control=35 value=127 time=0
control_change channel=7 control=36 value=0 time=0
control_change channel=7 control=37 value=64 time=0
control_change channel=7 control=38 value=0 time=0
control_change channel=7 control=39 value=64 time=0
control_change channel=7 control=40 value=47 time=0
control_change channel=7 control=41 value=0 time=0
control_change channel=7 control=42 value=127 time=0
control_change channel=7 control=43 value=0 time=0
control_change channel=7 control=44 value=127 time=0
control_change channel=7 control=45 value=0 time=0
control_change channel=7 control=46 value=108 time=0
control_change channel=7 control=47 value=108 time=0
control_change channel=7 control=49 value=0 time=0
control_change channel=7 control=50 value=0 time=0
control_change channel=7 control=51 value=0 time=0
